<svg version="1.1" xmlns="http://www.w3.org/2000/svg" width="32" height="32" viewBox="0 0 32 32">
<title>moon</title>
<path d="M21.341 21.983c-0.040 0.001-0.080 0.001-0.12 0.001-2.997-0-5.822-1.153-7.965-3.253-2.172-2.129-3.417-4.976-3.417-8.017-0-5.65 3.985-10.713 3.985-10.713-8.367 1.755-13.824 8.196-13.824 16.256 0 4.249 1.739 8.226 4.774 11.2 2.995 2.935 6.941 4.545 11.128 4.545 0.056 0 0.112-0 0.167-0.001 3.77-0.039 7.412-1.419 10.256-3.886 2.811-2.439 5.149-6.644 5.675-11.87 0 0-3.546 5.484-10.659 5.74zM25.090 26.689c-2.506 2.175-5.717 3.391-9.040 3.425-0.049 0-0.098 0.001-0.147 0.001-3.69 0-7.169-1.419-9.809-4.006-2.675-2.621-4.17-6.127-4.208-9.873-0.058-5.662 3.406-11.122 8.384-13.364-1.435 2.184-2.342 5.199-2.315 7.861 0.036 3.545 1.451 6.863 3.983 9.344s5.881 3.829 9.424 3.791c2.719-0.028 5.329-0.885 7.506-2.42-0.828 2-2.118 3.802-3.778 5.242z"></path>
</svg>
